<?xml version="1.0" encoding="UTF-8" standalone="no"?>
<svg width="130px" height="130px" viewBox="0 0 130 130" version="1.1" xmlns="http://www.w3.org/2000/svg" xmlns:xlink="http://www.w3.org/1999/xlink">
    <!-- Generator: Sketch 43.2 (39069) - http://www.bohemiancoding.com/sketch -->
    <title>CARTRIGES</title>
    <desc>Created with Sketch.</desc>
    <defs></defs>
    <g id="Page-1" stroke="none" stroke-width="1" fill="none" fill-rule="evenodd">
        <g id="CARTRIGES">
            <g id="Cartridges-Icon" fill="#EBEBEB">
                <path d="M65,130 C29.1010909,130 0,100.898909 0,65 C0,29.1010909 29.1010909,0 65,0 C100.898909,0 130,29.1010909 130,65 C130,100.898909 100.898909,130 65,130 Z" id="Fill-77"></path>
            </g>
            <g id="Group-11" transform="translate(41.000000, 8.000000)">
                <g id="Group-9" transform="translate(0.000000, 14.000000)">
                    <polygon id="Fill-25" fill="#CDF4FF" points="0.53164557 66.9010714 13.2911392 66.9010714 13.2911392 33.75 0.53164557 33.75"></polygon>
                    <path d="M8.02411643,53.6498214 L9.80071995,53.6498214 L9.80071995,42.7635714 L8.02411643,42.7635714 L8.02411643,53.6498214 Z M4.41545876,53.6498214 L6.19195312,53.6498214 L6.19195312,42.7635714 L4.41545876,42.7635714 L4.41545876,53.6498214 Z M2.83544304,63.0191071 L10.9873418,63.0191071 L10.9873418,35.8928571 L2.83544304,35.8928571 L2.83544304,63.0191071 Z" id="Fill-26" fill="#BBAE92"></path>
                    <path d="M1.24050633,66.8764558 L12.5822785,66.8764558 L12.5822785,48.0357143 C12.5822785,48.0357143 9.80339886,51.4035433 6.24420595,51.4035433 C2.68501304,51.4035433 1.24050633,50.7370582 1.24050633,50.7370582 L1.24050633,66.8764558 Z" id="Fill-25-Copy" fill-opacity="0.449999988" fill="#FFCB00"></path>
                    <polygon id="Fill-27" fill="#BBBBBB" points="0 73.6925 13.8227848 73.6925 13.8227848 63.0357143 0 63.0357143"></polygon>
                    <polygon id="Fill-27-Copy" fill="#BBBBBB" points="1.7721519 78.0491071 12.0506329 78.0491071 12.0506329 73.75 1.7721519 73.75"></polygon>
                    <polygon id="Fill-27-Copy-2" fill="#DDDDDD" points="1.7721519 78.0491071 6.91139241 78.0491071 6.91139241 73.75 1.7721519 73.75"></polygon>
                    <polygon id="Fill-28" fill="#DDDDDD" points="0 35.90625 13.8227848 35.90625 13.8227848 31.6071429 0 31.6071429"></polygon>
                    <path d="M12.1550557,6.70428571 C13.0834683,4.59732143 11.2956527,0 6.91139241,0 C2.52695333,0 0.739137693,4.59732143 1.66772914,6.70428571 C2.59667814,8.81142857 3.34006787,17.0935671 2.09930783,26.2653944 C-0.574012894,29.6175372 0.0674553576,31.6287872 0.0674553576,31.6287872 L13.7553295,31.6287872 C13.7553295,31.6287872 14.3967977,29.6175372 11.723477,26.2653944 C10.8177449,17.0642366 11.2261067,8.81142857 12.1550557,6.70428571 Z" id="Fill-33" fill="#BBBBBB"></path>
                    <path d="M13.8227848,73.6925 L6.91139241,73.6925 L6.91139241,63.0357143 L7.44303797,63.0357143 L7.44303797,35.90625 L6.91139241,35.90625 L6.91139241,31.6071429 L6.97275669,31.6071429 C6.91372134,31.3822154 6.49803094,29.4160924 9.01070024,26.2653944 C10.2514603,17.0935671 9.50807055,8.81142857 8.57912154,6.70428571 C7.6505301,4.59732143 9.43834574,0 13.8227848,0 C13.8227848,0 13.8227848,73.6925 13.8227848,73.6925 Z" id="Combined-Shape" fill-opacity="0.200000003" fill="#000000" transform="translate(10.367089, 36.846250) scale(-1, 1) translate(-10.367089, -36.846250) "></path>
                </g>
                <g id="Group-10" transform="translate(31.000000, 0.000000)">
                    <g id="Group-8">
                        <path d="M12.8872763,110.498373 C12.8872763,112.350233 10.0277934,113.851431 6.50011847,113.851431 C2.97244352,113.851431 0.112723684,112.350233 0.112723684,110.498373 C0.112723684,108.646768 2.97244352,107.14557 6.50011847,107.14557 C10.0277934,107.14557 12.8872763,108.646768 12.8872763,110.498373" id="Fill-47-Copy" fill="#8AB644"></path>
                        <polygon id="Fill-49-Copy" fill="#FFFFFF" points="0.112723684 110.626973 12.8872763 110.626973 12.8872763 0 0.112723684 0"></polygon>
                        <ellipse id="Oval-5-Copy" fill="#BBBBBB" cx="6.78377632" cy="13.3481013" rx="3.59210526" ry="3.78797468"></ellipse>
                        <ellipse id="Oval-5" fill="#DDDDDD" cx="6.78574342" cy="13.1082864" rx="3.53574342" ry="3.72853956"></ellipse>
                    </g>
                    <polygon id="Fill-49-Copy" fill-opacity="0.1" fill="#000000" points="6.5 110.626973 12.8872763 110.626973 12.8872763 0 6.5 0"></polygon>
                    <ellipse id="Oval-5" fill="#F2F2F2" cx="6.61469079" cy="13.1082864" rx="3.53574342" ry="3.72853956"></ellipse>
                </g>
            </g>
        </g>
    </g>
</svg>