<?xml version="1.0" encoding="UTF-8" standalone="no"?>
<svg width="130px" height="130px" viewBox="0 0 130 130" version="1.1" xmlns="http://www.w3.org/2000/svg" xmlns:xlink="http://www.w3.org/1999/xlink">
    <!-- Generator: Sketch 43.2 (39069) - http://www.bohemiancoding.com/sketch -->
    <title>DAILY WELLNESS</title>
    <desc>Created with Sketch.</desc>
    <defs></defs>
    <g id="Page-1" stroke="none" stroke-width="1" fill="none" fill-rule="evenodd">
        <g id="DAILY-WELLNESS">
            <g id="Wellness-Icon" fill="#EBEBEB">
                <path d="M130,65 C130,100.898909 100.898909,130 65,130 C29.1010909,130 0,100.898909 0,65 C0,29.1010909 29.1010909,0 65,0 C100.898909,0 130,29.1010909 130,65" id="Fill-151"></path>
            </g>
            <g id="Group-5" transform="translate(23.000000, 19.000000)">
                <path d="M66.8125,15.8647349 L66.8125,49 L56.1875,49 L56.1875,15.8647349 C54.2442672,14.3348695 53,11.9840535 53,9.34782609 C53,4.73744905 56.8055796,1 61.5,1 C66.1944204,1 70,4.73744905 70,9.34782609 C70,11.9840535 68.7557328,14.3348695 66.8125,15.8647349 Z" id="Combined-Shape" fill="#D7B05F" transform="translate(61.500000, 25.000000) rotate(39.000000) translate(-61.500000, -25.000000) "></path>
                <path d="M50.2876838,48 L47,45.0198104 L68.9952282,19.8018027 C72.1840939,18.8646607 73.7493645,18.0925302 75.4334505,16.023077 C78.3786712,12.4039052 76.8314759,7 76.8314759,7 C76.8314759,7 83.027772,11.5548192 78.0903175,18.8646607 C76.5618527,21.1275341 73.9395607,22.0019867 71.4552948,21.9886316 L50.2876838,48 Z" id="Combined-Shape-Copy-3" fill="#AE8D49"></path>
                <g id="Group" transform="translate(0.000000, 41.000000)">
                    <path d="M82.0613562,5.21391358 C82.0613562,7.4619234 81.6331893,28.8657494 80.8097914,30.95086 C76.4293145,42.1909091 60.9494337,50.4987715 42.5382563,50.4987715 C24.127079,50.4987715 8.64719821,42.1909091 4.26672131,30.95086 C3.4433234,28.8657494 3.01515648,7.4619234 3.01515648,5.21391358 L82.0613562,5.21391358 Z" id="Fill-1917" fill="#F0F1F1"></path>
                    <path d="M3.01515648,5.16118824 C3.01515648,7.40919807 3.4433234,28.8657494 4.26672131,30.95086 C8.64719821,42.1909091 24.127079,50.4987715 42.5382563,50.4987715 L42.5382563,5.16118824 L3.01515648,5.16118824 Z" id="Fill-1918" fill="#FFFFFF"></path>
                    <path d="M85,0 C85,2.24800983 84.554679,4.43085995 83.6982923,6.51597052 L4.0885929,6.51597052 C3.23220628,4.43085995 2.78688525,2.24800983 2.78688525,0 L85,0 Z" id="Fill-1923" fill="#E2E4E5"></path>
                    <path d="M42.5382563,0 L0,0 C0,2.24800983 0.46083111,4.43085995 1.34704478,6.51597052 L42.5382563,6.51597052 L42.5382563,0 Z" id="Fill-1925" fill="#F0F1F1"></path>
                </g>
                <g id="noun_862475" transform="translate(26.000000, 52.000000)" fill-rule="nonzero">
                    <path d="M19.6208065,20.3245119 C23.9494839,19.308131 28.2380645,18.863119 32.8268387,19.7773095 C28.5258387,21.8839524 24.2482581,23.0691548 19.5537419,22.6130952 C21.8094516,24.0744881 24.0917742,25.4295476 25.8333226,27.6787738 C22.2065161,26.9012976 19.3089032,25.2079048 16.8175806,22.5695952 L16.8175806,28.7797381 C16.4932581,28.8025238 16.2207419,28.8218571 15.8687419,28.8467143 L15.8687419,22.5064167 C13.3412258,25.1909881 10.4365161,26.8981905 6.80225806,27.6798095 C8.52358065,25.4309286 10.7991613,24.0796667 13.081129,22.6172381 C8.4103871,23.0726071 4.13458065,21.8894762 0,19.8801905 C0.876451613,19.4248214 4.38935484,19.0930476 6.31045161,19.3229762 C8.41783871,19.5746548 10.5174194,19.8912381 12.6936452,20.1370476 C6.84306452,17.8760833 3.88796774,13.1031667 1.38954839,7.92839286 C7.10422581,10.3930476 11.4942903,14.3833095 15.2630323,19.1569167 C13.2315806,12.731 13.8124516,6.45353571 16.2750323,0 C17.7167419,3.21934524 18.3139355,6.3755119 18.5385484,9.61004762 C18.763871,12.852869 18.323871,16.02975 17.3569355,19.1489762 C20.2602258,15.5481429 23.4640645,12.30325 27.4371935,9.85344048 C28.6390323,9.11255952 30.2241182,8.25875742 31.4600214,7.57035266 C31.5192795,7.6431979 26.8914466,18.6389324 19.6208065,20.3245119 Z" id="Shape" fill="#5DAD28"></path>
                    <path d="M19.6208065,20.3245119 C23.9494839,19.308131 28.2380645,18.863119 32.8268387,19.7773095 C28.5258387,21.8839524 24.2482581,23.0691548 19.5537419,22.6130952 C21.8094516,24.0744881 24.0917742,25.4295476 25.8333226,27.6787738 C22.2065161,26.9012976 19.3089032,25.2079048 16.8175806,22.5695952 L16.8175806,28.7797381 C16.4932581,28.8025238 16.2207419,28.8218571 15.8687419,28.8467143 L15.8687419,22.5064167 C13.3412258,25.1909881 10.4365161,26.8981905 6.80225806,27.6798095 C10.6332015,25.7808079 26.2582472,14.336978 31.4600214,7.57035266 C31.5192795,7.6431979 26.8914466,18.6389324 19.6208065,20.3245119 Z" id="Shape-Copy" fill-opacity="0.579999983" fill="#4B8525"></path>
                </g>
            </g>
        </g>
    </g>
</svg>