<?xml version="1.0" encoding="UTF-8" standalone="no"?>
<svg width="130px" height="130px" viewBox="0 0 130 130" version="1.1" xmlns="http://www.w3.org/2000/svg" xmlns:xlink="http://www.w3.org/1999/xlink">
    <!-- Generator: Sketch 43.2 (39069) - http://www.bohemiancoding.com/sketch -->
    <title>EDIBLES</title>
    <desc>Created with Sketch.</desc>
    <defs></defs>
    <g id="Page-1" stroke="none" stroke-width="1" fill="none" fill-rule="evenodd">
        <g id="EDIBLES">
            <g id="edibles" fill="#EBEBEB">
                <path d="M130,65 C130,100.898909 100.898909,130 65,130 C29.1010909,130 0,100.898909 0,65 C0,29.1010909 29.1010909,0 65,0 C100.898909,0 130,29.1010909 130,65" id="Fill-233"></path>
            </g>
            <g id="Edible-Icon" transform="translate(69.735895, 67.534971) rotate(198.000000) translate(-69.735895, -67.534971) translate(21.735895, 28.534971)" fill-rule="nonzero">
                <path d="M34.3344585,14.9637821 C28.1808578,14.9637821 23.2058557,19.4247819 23.2058557,24.9065724 C23.2058557,25.6865936 23.3221825,26.4981763 23.5512292,27.3196784 C23.6594402,27.7110416 23.6233699,28.1276541 23.4466252,28.4937681 C21.2021481,33.1675829 20.0650305,38.1245499 20.0650305,43.2285035 C20.0650305,43.3267952 20.0731463,43.4232834 20.0794586,43.5197715 C20.089378,43.6640529 20.0992973,43.8065308 20.1020026,43.9517139 C20.1065114,44.2267503 20.0451918,44.4981796 19.9207491,44.7425562 C19.3300972,45.9067265 19.0180888,47.2296064 19.0180888,48.5678161 C19.0180888,51.0629822 20.0686375,53.357056 21.8974039,54.8602876 C22.1201383,55.0424428 22.2914725,55.2796054 22.3960765,55.5483294 C27.5342969,68.7978684 40.0155376,77.357361 54.193888,77.357361 C59.0886337,77.357361 63.8553296,76.3113211 68.3614173,74.2480974 C68.7654051,74.0632369 69.225302,74.0461035 69.643718,74.2012059 C70.4138198,74.4888669 71.2046621,74.6349518 71.9909956,74.6349518 C75.9461088,74.6349518 79.1572712,71.2263043 79.3042578,66.8744174 C79.3177842,66.4848577 79.4647709,66.1124314 79.7226738,65.8202616 C83.0826263,62.0256614 85.5038482,57.6728727 86.9151004,52.8818293 C87.0151956,52.5400627 87.2226,52.2388754 87.5057522,52.0233551 C90.8675083,49.4605571 92.7188187,46.039285 92.7188187,42.389868 C92.7188187,38.5159131 90.5762403,34.8250152 86.8393526,32.266726 C86.5543969,32.0701427 86.3352696,31.7905975 86.2162375,31.4659644 C84.3333655,26.3773406 81.212379,21.7432032 77.1914374,18.0667334 C76.6765333,17.5960155 76.5079044,16.8547699 76.7676109,16.2073072 C76.9308292,15.7979088 77.0146928,15.3776893 77.0146928,14.9610768 C77.0146928,13.1133735 75.5114612,11.6110437 73.6646596,11.6110437 C72.8386487,11.6110437 72.0369853,11.9284627 71.4102631,12.5046864 C70.8953589,12.9754044 70.1423905,13.0791067 69.5228824,12.7670982 C64.6957686,10.33235 59.5377094,9.09784246 54.1920845,9.09784246 C47.5307938,9.09784246 41.0633811,11.0339182 35.4887095,14.6977633 C35.2073608,14.8826238 34.9341279,14.9818173 34.5382559,14.9727997 C34.5139084,14.9727997 34.3669218,14.9619786 34.3344585,14.9637821 Z" id="Shape" fill="#B2913F"></path>
                <path d="M34.3344585,14.9637821 C28.1808578,14.9637821 23.2058557,19.4247819 23.2058557,24.9065724 C23.2058557,25.6865936 23.3221825,26.4981763 23.5512292,27.3196784 C23.6594402,27.7110416 23.6233699,28.1276541 23.4466252,28.4937681 C21.2021481,33.1675829 20.0650305,38.1245499 20.0650305,43.2285035 C20.0650305,43.3267952 20.0731463,43.4232834 20.0794586,43.5197715 C20.089378,43.6640529 20.0992973,43.8065308 20.1020026,43.9517139 C20.1065114,44.2267503 20.0451918,44.4981796 19.9207491,44.7425562 C19.3300972,45.9067265 19.0180888,47.2296064 19.0180888,48.5678161 C19.0180888,51.0629822 20.0686375,53.357056 21.8974039,54.8602876 C22.1201383,55.0424428 22.2914725,55.2796054 22.3960765,55.5483294 C27.5342969,68.7978684 70.1423905,13.0791067 69.5228824,12.7670982 C64.6957686,10.33235 59.5377094,9.09784246 54.1920845,9.09784246 C47.5307938,9.09784246 41.0633811,11.0339182 35.4887095,14.6977633 C35.2073608,14.8826238 34.9341279,14.9818173 34.5382559,14.9727997 C34.5139084,14.9727997 34.3669218,14.9619786 34.3344585,14.9637821 Z" id="Shape-Copy-2" fill="#9F8A53"></path>
                <path d="M51.9782671,18.494167 C51.0963472,20.3797442 49.5624559,19.6763725 47.6768786,18.7944526 C45.7913014,17.9125327 44.2682312,17.1866171 45.1492493,15.3010398 C46.0302675,13.4154626 48.9835269,11.0844166 50.8691041,11.9654348 C52.7555831,12.8473547 52.860187,16.6085898 51.9782671,18.494167 Z" id="Shape" fill="#333333"></path>
                <path d="M25.0301133,48.2017021 C26.4548919,49.7193619 25.2321072,50.8835322 23.7144475,52.307409 C22.1967878,53.7312859 20.9577715,54.877421 19.5329929,53.3597613 C18.1082143,51.8421016 17.0378269,48.2350672 18.5563884,46.8111904 C20.0749498,45.3873136 23.6062365,46.6840424 25.0301133,48.2017021 Z" id="Shape" fill="#333333"></path>
                <path d="M83.5335056,52.8024745 C82.7444669,54.7286309 81.1781122,54.1001051 79.2519558,53.3110663 C77.3257995,52.5220276 75.7693641,51.8709579 76.5584029,49.9448015 C77.3474417,48.0186452 80.1834725,45.5469248 82.1096288,46.3359636 C84.0357852,47.1250024 84.3225444,50.8763181 83.5335056,52.8024745 Z" id="Shape" fill="#333333"></path>
                <path d="M94.6553383,44.4911474 C93.8662995,46.4173037 92.2999448,45.788778 90.3737885,44.9997392 C88.4476321,44.2107005 86.8911968,43.5596308 87.6802355,41.6334744 C88.4692743,39.707318 91.3053051,37.2355977 93.2314614,38.0246365 C95.1576178,38.814577 95.444377,42.5658928 94.6553383,44.4911474 Z" id="Shape" fill="#333333"></path>
                <path d="M26.3641805,9.5989918 C25.3629085,12.0432398 23.3752405,11.2456552 20.9309924,10.2443831 C18.4867443,9.24311111 16.5116638,8.41691865 17.5129358,5.97267059 C18.5142078,3.52842254 22.1130655,0.3918664 24.5573136,1.39313843 C27.0015617,2.39555476 27.3654525,7.15588805 26.3641805,9.5989918 Z" id="Shape-Copy-3" fill="#B1913F" transform="translate(22.065433, 6.208096) rotate(75.000000) translate(-22.065433, -6.208096) "></path>
                <path d="M10.8608974,25.8357811 C10.1886603,27.4768077 8.85417382,26.9413229 7.21314723,26.2690858 C5.57212063,25.5968488 4.2460851,25.0421573 4.91832212,23.4011307 C5.59055913,21.7601041 8.00677104,19.6542736 9.64779764,20.3265106 C11.2888242,20.9995159 11.5331344,24.1955228 10.8608974,25.8357811 Z" id="Shape-Copy-4" fill="#333333" transform="translate(7.974791, 23.559191) rotate(174.000000) translate(-7.974791, -23.559191) "></path>
                <path d="M25.9273631,23.9651364 C23.8461043,23.9651364 23.8334797,22.2779461 23.8334797,20.1966872 C23.8334797,18.1154284 23.8461043,16.4282381 25.9273631,16.4282381 C28.0086219,16.4282381 31.3712797,18.1154284 31.3712797,20.1966872 C31.3712797,22.2779461 28.0095237,23.9651364 25.9273631,23.9651364 Z" id="Shape" fill="#8AB644"></path>
                <path d="M61.2086681,65.945606 C61.2086681,63.8643472 62.8958584,63.8517226 64.9771173,63.8517226 C67.0583761,63.8517226 68.7455664,63.8643472 68.7455664,65.945606 C68.7455664,68.0268648 67.0583761,71.3895226 64.9771173,71.3895226 C62.8958584,71.3895226 61.2086681,68.0277666 61.2086681,65.945606 Z" id="Shape" fill="#333333"></path>
                <path d="M70.0188496,10.5036841 C71.8025281,8.43685341 73.4888167,9.87155133 75.5547456,11.6552298 C77.6215763,13.4389083 79.2862227,14.8979537 77.5016424,16.9647844 C75.7179639,19.0316151 71.160476,20.9235047 69.0936453,19.1389244 C67.0277163,17.3543442 68.2342693,12.5705148 70.0188496,10.5036841 Z" id="Shape" fill="#333333"></path>
                <path d="M72.2912812,67.750025 C73.7629513,66.2783549 74.9649955,67.462364 76.4366655,68.934034 C77.9083355,70.405704 79.0932463,71.6077482 77.6206745,73.0794183 C76.1490045,74.5510883 72.5780405,75.7359991 71.1063704,74.2634273 C69.6347004,72.792659 70.8187095,69.221695 72.2912812,67.750025 Z" id="Shape" fill="#8AB644"></path>
                <path d="M40.6747232,65.2368238 C42.1463932,63.7651537 43.3484374,64.9491628 44.8201074,66.4208328 C46.2917774,67.8925028 47.4766882,69.094547 46.0041165,70.5662171 C44.5324464,72.0378871 40.9614824,73.2227979 39.4898124,71.7502261 C38.0181423,70.2794578 39.2021514,66.7093955 40.6747232,65.2368238 Z" id="Shape" fill="#333333"></path>
                <path d="M59.8118441,49.8934013 C59.8118441,47.8121424 61.4990344,47.7995178 63.5802932,47.7995178 C65.6615521,47.7995178 67.3487424,47.8121424 67.3487424,49.8934013 C67.3487424,51.9746601 65.6615521,55.3373179 63.5802932,55.3373179 C61.4990344,55.3373179 59.8118441,51.9746601 59.8118441,49.8934013 Z" id="Shape" fill="#333333"></path>
                <path d="M38.852269,59.774872 C37.8107379,61.5765856 36.3435766,60.7424589 34.541863,59.7009277 C32.7401493,58.6593966 31.2856127,57.8036277 32.3271439,56.001914 C33.368675,54.2002003 36.5131072,52.1342714 38.3148209,53.1758026 C40.1165346,54.2182355 39.8938002,57.9731583 38.852269,59.774872 Z" id="Shape" fill="#8AB644"></path>
                <path d="M47.9248623,30.9312215 C48.2368707,28.8734084 49.9069277,29.1132762 51.9647408,29.4252847 C54.0225539,29.7372932 55.6890038,30.0015084 55.377897,32.0602233 C55.0667903,34.1189382 52.8944539,37.190328 50.8366408,36.8783195 C48.7788277,36.566311 47.6137555,32.9899364 47.9248623,30.9312215 Z" id="Shape" fill="#333333"></path>
                <path d="M74.0325771,36.510402 C72.3571096,37.7449095 71.3462382,36.3940751 70.110829,34.7186076 C68.8763214,33.0431402 67.8852887,31.6769759 69.5607562,30.4424684 C71.2362237,29.2079609 74.944255,28.5713193 76.1787625,30.2467868 C77.4132701,31.9222542 75.7080446,35.2749927 74.0325771,36.510402 Z" id="Shape" fill="#8AB644"></path>
                <path d="M2.01186558,12.9477735 C-0.0684914954,12.8945697 -0.0378317031,11.2073794 0.0153720539,9.12612053 C0.068575811,7.04486169 0.124484844,5.35857312 2.20484192,5.41177688 C4.285199,5.46498064 7.60367063,7.23783803 7.55046687,9.31909687 C7.49726311,11.4003557 4.09222266,13.0009772 2.01186558,12.9477735 Z" id="Shape" fill="#8AB644"></path>
            </g>
        </g>
    </g>
</svg>