<?xml version="1.0" encoding="UTF-8" standalone="no"?>
<svg width="130px" height="130px" viewBox="0 0 130 130" version="1.1" xmlns="http://www.w3.org/2000/svg" xmlns:xlink="http://www.w3.org/1999/xlink">
    <!-- Generator: Sketch 43.2 (39069) - http://www.bohemiancoding.com/sketch -->
    <title>EXTRACTS</title>
    <desc>Created with Sketch.</desc>
    <defs></defs>
    <g id="Page-1" stroke="none" stroke-width="1" fill="none" fill-rule="evenodd">
        <g id="EXTRACTS">
            <g id="Concentrates-Icon" fill="#EBEBEB">
                <path d="M130,65 C130,100.898909 100.898909,130 65,130 C29.1010909,130 0,100.898909 0,65 C0,29.1010909 29.1010909,0 65,0 C100.898909,0 130,29.1010909 130,65" id="Fill-3"></path>
            </g>
            <g id="Bottle-and-Dropper" transform="translate(27.000000, 17.000000)">
                <g id="dropper" transform="translate(54.000000, 0.000000)">
                    <g id="Group-7" transform="translate(11.500000, 48.500000) rotate(-360.000000) translate(-11.500000, -48.500000) translate(-0.000000, 0.000000)">
                        <path d="M5.75,19.0615704 C5.75,15.8871233 8.33082447,13.3137255 11.5,13.3137255 L11.5,13.3137255 C14.6756373,13.3137255 17.25,15.8947033 17.25,19.0615704 L17.25,73.8306595 L14.375,89.3921569 L8.625,89.3921569 L5.75,73.8306595 L5.75,19.0615704 Z" id="Rectangle-2-Copy-3" fill="#FFFFFF"></path>
                        <path d="M9.58333333,56.1078431 L13.4166667,56.1078431 L13.4166667,86.4815925 C13.4166667,87.0386289 12.9769346,87.4901961 12.4095035,87.4901961 L10.5904965,87.4901961 C10.0342557,87.4901961 9.58333333,87.0465653 9.58333333,86.4815925 L9.58333333,56.1078431 Z" id="Rectangle-19" fill="#FFCB00"></path>
                        <path d="M9.10416667,89.3921569 L13.8958333,89.3921569 L12.6979167,90.4218202 L13.4497734,94.3989681 C13.6961255,95.7021137 12.8324072,96.758522 11.5,96.758522 L11.5,96.758522 C10.1768178,96.758522 9.30197824,95.7121446 9.55022662,94.3989681 L10.3020833,90.4218202 L9.10416667,89.3921569 Z" id="Rectangle-16" fill="#CEA402"></path>
                        <path d="M9.10416667,89.3921569 L11.5,89.3921569 L11.5,96.758522 C11.5,96.758522 9.32453685,96.9602291 9.50222975,94.4698087 C9.50222975,94.4698087 10.3020833,90.4218202 10.3020833,90.4218202 L9.10416667,89.3921569 Z" id="Rectangle-16-Copy" fill="#FFCC02"></path>
                        <path d="M5.75,19.0615704 C5.75,15.8871233 8.33082447,13.3137255 11.5,13.3137255 L11.5,13.3137255 C14.6756373,13.3137255 17.25,15.8947033 17.25,19.0615704 L17.25,73.8306595 L14.375,89.3921569 L8.625,89.3921569 L5.75,73.8306595 L5.75,19.0615704 Z" id="Rectangle-2-Copy" fill-opacity="0.11548913" fill="#12C8F9"></path>
                        <path d="M11.5,19.4439006 C11.5,12.861362 17.4352742,13.3206114 17.4352742,13.3206114 L17.3845737,89.3990428 L14.375,89.3990428 L11.5,73.8375455 C11.5,73.8375455 11.5,26.0264392 11.5,19.4439006 Z" id="Rectangle-2-Copy-2" fill-opacity="0.11548913" fill="#12C8F9" transform="translate(14.467637, 51.356384) scale(-1, 1) translate(-14.467637, -51.356384) "></path>
                        <path d="M18.2083333,17.1176471 L18.2083333,6.49677586 C18.2083333,2.90029272 15.3016853,0 11.7161533,0 L11.2838467,0 C7.70288351,0 4.79166667,2.90870563 4.79166667,6.49677586 L4.79166667,17.1176471 L1.76214598e-12,17.1176471 L1.76214598e-12,28.5294118 L23,28.5294118 L23,17.1176471 L18.2083333,17.1176471 Z" id="Combined-Shape" fill="#636262"></path>
                        <path d="M11.4845221,0 L11.0286658,0 C7.57160867,0 4.79166667,2.76500002 4.79166667,6.1758004 L4.79166667,17.1176471 L1.76214598e-12,17.1176471 L1.76214598e-12,28.5294118 L11.5652162,28.5294118 C11.5652162,28.5294118 11.6467928,0 11.4845221,0 Z" id="Combined-Shape-Copy-4" fill="#7D7D7D"></path>
                    </g>
                </g>
                <g id="Bottle">
                    <path d="M28.6956522,17.0816327 L28.6956522,6.50010269 C28.6956522,2.91961656 25.78572,0 22.1961367,0 L21.8038633,0 C18.2100614,0 15.3043478,2.9101951 15.3043478,6.50010269 L15.3043478,17.0816327 L10.5217391,17.0816327 L10.5217391,28.4693878 L33.4782609,28.4693878 L33.4782609,17.0816327 L28.6956522,17.0816327 Z" id="Combined-Shape-Copy-5" fill="#636262"></path>
                    <rect id="Rectangle-20-Copy-3" fill="#FFFFFF" x="0" y="28.4693878" width="44" height="64.5306122" rx="8"></rect>
                    <path d="M21.9845514,0 L21.5295568,0 C18.0790347,0 15.3043478,2.75918264 15.3043478,6.16280692 L15.3043478,17.0816327 L10.5217391,17.0816327 L10.5217391,28.4693878 L22.0650929,28.4693878 C22.0650929,28.4693878 22.1465153,0 21.9845514,0 Z" id="Combined-Shape-Copy-6" fill="#7D7D7D"></path>
                    <rect id="Rectangle-20" fill-opacity="0.639999986" fill="#85631C" x="0" y="28.4693878" width="44" height="64.5306122" rx="8"></rect>
                    <path d="M22,36.4792681 C22,32.0555333 25.584552,28.4693878 29.9905924,28.4693878 L43.7074991,28.4693878 L44,93 L30.004739,93 C25.5838437,93 22,89.4154907 22,84.9901196 L22,36.4792681 Z" id="Rectangle-20-Copy-2" fill-opacity="0.639999986" fill="#85631C" transform="translate(33.000000, 60.734694) scale(-1, 1) translate(-33.000000, -60.734694) "></path>
                    <path d="M3.82608696,62.3076601 L40.173913,62.3076601 L40.173913,83.8812062 C40.173913,86.6414604 37.927624,88.8790886 35.1771046,88.8790886 L8.8228954,88.8790886 C6.0632343,88.8790886 3.82608696,86.6365238 3.82608696,83.8812062 L3.82608696,62.3076601 Z" id="Rectangle-20-Copy" fill-opacity="0.370000005" fill="#FFCB00"></path>
                    <ellipse id="Oval-4" fill="#FFFFFF" cx="22" cy="55.9897959" rx="16.2608696" ry="16.1326531"></ellipse>
                    <g id="noun_862475" transform="translate(8.608696, 43.653061)" fill-rule="nonzero">
                        <path d="M16.379108,16.7178895 C19.9926126,15.8818672 23.5726452,15.5158235 27.4032741,16.2677892 C23.8128741,18.0006044 20.2420241,18.9754904 16.3231237,18.6003595 C18.2061509,19.8024254 20.1113941,20.9170271 21.5652084,22.767124 C18.5376135,22.1276124 16.1187366,20.7347152 14.0390238,18.5645786 L14.0390238,23.6727201 C13.768285,23.6914624 13.5407933,23.707365 13.2469498,23.7278112 L13.2469498,18.5126112 C11.1370233,20.7208004 8.71222216,22.1250566 5.67840673,22.7679759 C7.11533689,20.918163 9.01495203,19.8066851 10.919899,18.6037672 C7.02084488,18.9783301 3.45147602,18.005148 0,16.3524137 C0.731646564,15.9778508 3.66415708,15.7049508 5.26785526,15.8940782 C7.02706536,16.1010959 8.77975877,16.3615009 10.5964342,16.5636911 C5.71247125,14.7039391 3.24560785,10.7779854 1.15997083,6.52148481 C5.93048415,8.548782 9.59523366,11.8309645 12.7413139,15.7574862 C11.0454934,10.4718604 11.5303944,5.30834381 13.5861139,0 C14.7896281,2.64806644 15.2881548,5.24416547 15.4756578,7.90472681 C15.6637532,10.5721035 15.2964488,13.1852411 14.4892679,15.7509548 C16.9128842,12.789096 19.587393,10.1200154 22.904092,8.10492915 C23.9073661,7.4955189 25.2305682,6.79322557 26.2622788,6.22697951 C26.3117464,6.28689823 22.4485119,15.3314192 16.379108,16.7178895 Z" id="Shape" fill="#5DAD28"></path>
                        <path d="M16.379108,16.7178895 C19.9926126,15.8818672 23.5726452,15.5158235 27.4032741,16.2677892 C23.8128741,18.0006044 20.2420241,18.9754904 16.3231237,18.6003595 C18.2061509,19.8024254 20.1113941,20.9170271 21.5652084,22.767124 C18.5376135,22.1276124 16.1187366,20.7347152 14.0390238,18.5645786 L14.0390238,23.6727201 C13.768285,23.6914624 13.5407933,23.707365 13.2469498,23.7278112 L13.2469498,18.5126112 C11.1370233,20.7208004 8.71222216,22.1250566 5.67840673,22.7679759 C8.87641169,21.2059556 21.9199281,11.7928546 26.2622788,6.22697951 C26.3117464,6.28689823 22.4485119,15.3314192 16.379108,16.7178895 Z" id="Shape-Copy" fill-opacity="0.579999983" fill="#4B8525"></path>
                    </g>
                </g>
            </g>
        </g>
    </g>
</svg>