<?xml version="1.0" encoding="UTF-8" standalone="no"?>
<svg width="130px" height="130px" viewBox="0 0 130 130" version="1.1" xmlns="http://www.w3.org/2000/svg" xmlns:xlink="http://www.w3.org/1999/xlink">
    <!-- Generator: Sketch 43.2 (39069) - http://www.bohemiancoding.com/sketch -->
    <title>FLOWER</title>
    <desc>Created with Sketch.</desc>
    <defs></defs>
    <g id="Page-1" stroke="none" stroke-width="1" fill="none" fill-rule="evenodd">
        <g id="FLOWER">
            <g id="Flower-icon" fill="#EBEBEB">
                <path d="M130,65 C130,100.898909 100.898909,130 65,130 C29.1010909,130 0,100.898909 0,65 C0,29.1010909 29.1010909,0 65,0 C100.898909,0 130,29.1010909 130,65" id="Fill-227"></path>
            </g>
            <g id="noun_862475" transform="translate(15.000000, 18.000000)" fill-rule="nonzero">
                <path d="M58.5752119,62.0021064 C71.4978814,58.9015271 84.3008475,57.5439705 98,60.3328067 C85.1599576,66.759347 72.3898305,70.3749342 58.375,68.9836756 C65.1091102,73.4418115 71.9226695,77.5755661 77.121822,84.4370721 C66.2944915,82.0652975 57.6440678,76.8994207 50.2065678,68.8509742 L50.2065678,87.7956819 C49.2383475,87.8651922 48.4247881,87.9241706 47.3739407,88 L47.3739407,68.6582412 C39.8283898,76.8478146 31.1567797,82.0558189 20.3072034,84.4402317 C25.4459746,77.5797788 32.2394068,73.4576093 39.0519068,68.9963138 C25.1080508,70.385466 12.3432203,66.776198 0,60.6466561 C2.61652542,59.2575039 13.1038136,58.2453923 18.8389831,58.9468141 C25.1302966,59.7145866 31.3983051,60.6803581 37.8951271,61.4302264 C20.4290254,54.5329121 11.6069915,39.9726172 4.14830508,24.1864139 C21.2086864,31.705108 34.3146186,43.8778304 45.565678,58.4402317 C39.5010593,38.8372828 41.2351695,19.6872038 48.5868644,0 C52.8908898,9.8209584 54.6737288,19.4491838 55.3442797,29.3164824 C56.0169492,39.2090574 54.7033898,48.9004739 51.8167373,58.4160084 C60.4841102,47.4312796 70.0487288,37.5323855 81.9099576,30.0589784 C85.4978814,27.7988415 90.2299368,25.1942265 93.9195555,23.0941738 C94.0964623,23.3163961 80.2807054,56.8600649 58.5752119,62.0021064 Z" id="Shape" fill="#5DAD28"></path>
                <path d="M58.4193232,62.9643852 C71.3930899,59.8593073 84.2466799,58.4997809 98,61.2926636 C85.1091871,67.7285283 72.2885659,71.3493614 58.2183197,69.9560843 C64.979057,74.4206886 71.8195577,78.560441 77.0392681,85.4319026 C66.1691255,83.0566867 57.4844973,77.8833146 50.0175888,69.8231903 L50.0175888,88.7953855 C49.0455401,88.8649966 48.2287639,88.9240606 47.1737613,89 L47.1737613,69.6301776 C39.5983747,77.8316336 30.8924763,83.0471943 20,85.4350667 C31.4819752,79.6335529 78.312838,44.672268 93.9034211,24 C94.0810274,24.2225447 80.2106419,57.8148831 58.4193232,62.9643852 Z" id="Shape-Copy" fill-opacity="0.579999983" fill="#4B8525"></path>
            </g>
        </g>
    </g>
</svg>