<?xml version="1.0" encoding="UTF-8" standalone="no"?>
<svg width="130px" height="130px" viewBox="0 0 130 130" version="1.1" xmlns="http://www.w3.org/2000/svg" xmlns:xlink="http://www.w3.org/1999/xlink">
    <!-- Generator: Sketch 43.2 (39069) - http://www.bohemiancoding.com/sketch -->
    <title>MERCH</title>
    <desc>Created with Sketch.</desc>
    <defs></defs>
    <g id="Page-1" stroke="none" stroke-width="1" fill="none" fill-rule="evenodd">
        <g id="MERCH">
            <g id="CARTRIGES-Copy" fill="#EBEBEB">
                <g id="Cartridges-Icon">
                    <path d="M65,130 C29.1010909,130 0,100.898909 0,65 C0,29.1010909 29.1010909,0 65,0 C100.898909,0 130,29.1010909 130,65 C130,100.898909 100.898909,130 65,130 Z" id="Fill-77"></path>
                </g>
            </g>
            <g id="Tshirt" transform="translate(24.000000, 29.000000)">
                <path d="M71.0061308,4.82355586 C69.6792723,3.50944835 68.0317207,2.70845512 66.313062,2.41283372 L52.7998682,0.0154849305 C49.6924878,1.83003725 47.9752513,3.44398932 40.9996445,3.44398932 C34.1754958,3.44398932 32.3978182,1.81384845 29.2904378,0 L15.6862269,2.41283372 C13.9668572,2.70845512 12.3200166,3.50944835 10.9931581,4.82355586 L0,15.6813076 L12.3968123,27.9517074 L15.5824105,24.8047471 L15.5824105,72 L66.4168784,72 L66.4168784,24.8047471 L69.6024766,27.9517074 L82,15.6813076 L71.0061308,4.82355586" id="Fill-11" fill="#9CC7BD"></path>
                <path d="M15,24.8098011 L12.6141657,3 C11.886702,3.40029112 11.2023929,3.91617433 10.5900082,4.55407141 L0,15.5610069 L11.9421865,28 L15,24.8212176 L15,24.8098011" id="Fill-12" fill="#E07842"></path>
                <path d="M70.4107575,4.55407141 C69.7991416,3.91617433 69.1142414,3.40029112 68.3868773,3 L66,24.8098011 L66,24.8212176 L69.0587644,28 L81,15.5610069 L70.4107575,4.55407141" id="Fill-13" fill="#E07842"></path>
                <path d="M52,0.0152915827 L51.9130747,0 C48.7744253,1.79189546 44.8117816,2.86647668 40.5,2.86647668 C36.1882184,2.86647668 32.2255747,1.79189546 29.0862069,0 L29,0.0152915827 C29.6221264,5.62869257 34.533046,10 40.5,10 C46.4662356,10 51.3771552,5.62869257 52,0.0152915827" id="Fill-14" fill="#84AFA4"></path>
                <polygon id="Fill-15" fill="#E9BF86" points="38 6 44 6 44 4 38 4"></polygon>
                <path d="M54,0.297685443 L52.4191166,0 C49.3001729,1.79726715 45.2840869,3.0967652 41.0003569,3.0967652 C36.7166269,3.0967652 32.6998271,1.79726715 29.5808834,0 L28,0.297685443 L28,1.59927496 C28.2305306,1.70803123 29.311812,2.21625767 29.311812,2.21625767 C32.7405089,4.04001673 36.7651596,5 41.0003569,5 C45.2498284,5 49.2858986,4.03374233 52.7224464,2.19882878 C52.7224464,2.19882878 53.7473441,1.74498048 54,1.64040714 L54,0.297685443" id="Fill-16" fill="#E07842"></path>
                <polyline id="Fill-17" fill="#EC9046" points="67 26.1951731 68.8089102 28 81 15.8048269 79.1910898 14 67 26.1951731"></polyline>
                <polyline id="Fill-18" fill="#EC9046" points="14 26.1951731 12.1922174 28 0 15.8048269 1.80778261 14 14 26.1951731"></polyline>
                <path d="M41,12 C47.6485098,12 53.2049334,6.99988256 54,0.339635937 L52.1288458,0 C51.5048959,5.66811509 46.7623201,10.0756312 41,10.0756312 C35.2383755,10.0756312 30.4944085,5.66811509 29.8704586,0 L28,0.339635937 C28.7950666,6.99988256 34.3507946,12 41,12" id="Fill-19" fill="#EC9046"></path>
                <polygon id="Fill-20" fill="#EC9046" points="15 73 66 73 66 71 15 71"></polygon>
            </g>
        </g>
    </g>
</svg>