<?xml version="1.0" encoding="UTF-8" standalone="no"?>
<svg width="130px" height="130px" viewBox="0 0 130 130" version="1.1" xmlns="http://www.w3.org/2000/svg" xmlns:xlink="http://www.w3.org/1999/xlink">
    <!-- Generator: Sketch 43.2 (39069) - http://www.bohemiancoding.com/sketch -->
    <title>PREROLLS</title>
    <desc>Created with Sketch.</desc>
    <defs></defs>
    <g id="Page-1" stroke="none" stroke-width="1" fill="none" fill-rule="evenodd">
        <g id="PREROLLS">
            <g id="PreRoll" fill="#EBEBEB">
                <path d="M130,65 C130,100.898909 100.898909,130 65,130 C29.1010909,130 0,100.898909 0,65 C0,29.1010909 29.1010909,0 65,0 C100.898909,0 130,29.1010909 130,65" id="Fill-201"></path>
            </g>
            <g id="PreRoll" transform="translate(65.151891, 64.985270) rotate(-23.000000) translate(-65.151891, -64.985270) translate(10.151891, 55.485270)">
                <g id="Group-4" transform="translate(0.000000, 0.000000)">
                    <path d="M46.2355249,-40.6009653 C46.1759912,-41.7877307 47.0050995,-43.1410698 48.1099539,-43.5734783 C48.1099539,-43.5734783 50.6721564,-44.9960947 55.249734,-44.9960947 C59.8273116,-44.9960947 62.4279855,-43.5671145 62.4279855,-43.5671145 C63.5198144,-43.1157209 64.3438027,-41.7977232 64.2669823,-40.6009653 L57.7560672,60.8302379 C57.6571408,62.3713761 56.3251015,63.6207154 54.7708436,63.6207154 L54.2698721,63.6207154 C52.720105,63.6207154 51.4010663,62.3707471 51.3237872,60.8302379 L46.2355249,-40.6009653 Z" id="Combined-Shape-Copy" fill="#E8BE70" transform="translate(55.252228, 9.312310) rotate(-270.000000) translate(-55.252228, -9.312310) "></path>
                    <path d="M21.0248905,12.9811611 L2.91542738,11.8187064 C1.37428922,11.71978 0.1249499,10.3877407 0.1249499,8.83348276 L0.1249499,8.33251132 C0.1249499,6.7827442 1.37491818,5.46370548 2.91542738,5.38642635 L21.5189379,4.45318748 C20.7682141,6.0216668 20.3740481,7.6453524 20.3740481,9.30823289 C20.3740481,10.5569026 20.5963034,11.7834718 21.0248905,12.9811611 Z" id="Combined-Shape" fill="#FFFFFF"></path>
                    <path d="M100.013456,2.49282287 C100.013456,2.49282287 97.0504511,13.6621652 104.086233,18.2646643 C99.330855,12.7783408 102.824195,3.51703263 103.186233,2.2498998 C103.186233,2.2498998 100.013456,2.49282287 100.013456,2.49282287 Z" id="Path-2" fill-opacity="0.660000026" fill="#8E9670"></path>
                    <path d="M105.564434,3.09007715 C105.564434,3.09007715 99.8859881,12.2876753 106.026704,16.8140564 C107.748229,15.9377554 108.161769,13.0924391 108.162304,11.6022934 C108.164787,4.69156117 105.564434,3.09007715 105.564434,3.09007715 Z" id="Path-2-Copy-3" fill-opacity="0.2" fill="#000000" transform="translate(105.667288, 9.952067) rotate(183.000000) translate(-105.667288, -9.952067) "></path>
                    <path d="M107.535091,3.37404692 C107.535091,3.37404692 102.494726,12.9465286 108.042423,16.9814111 C105.166575,12.0124735 107.535091,3.37404692 107.535091,3.37404692 Z" id="Path-2-Copy" fill="#8E9670" transform="translate(106.740216, 10.177729) rotate(183.000000) translate(-106.740216, -10.177729) "></path>
                    <path d="M50.6819172,-35.6347965 C50.6819172,-35.6347965 56.9976988,-35.8396878 57.1076321,-38.7475094 C54.8122706,-5.57932679 50.5844648,63.4861028 50.5844648,63.4861028 C50.5844648,63.4861028 49.729267,65.5008226 47.7598815,65.9758137 C47.8947499,27.96661 49.5377378,-2.08468429 50.6819172,-35.6347965 Z" id="Combined-Shape-Copy-2" fill-opacity="0.2" fill="#3A3A3A" transform="translate(52.433757, 13.614152) rotate(-270.000000) translate(-52.433757, -13.614152) "></path>
                </g>
            </g>
        </g>
    </g>
</svg>